<svg width="30" height="35" viewBox="0 0 30 35" fill="none" xmlns="http://www.w3.org/2000/svg">
<path d="M26.3083 35C26.1554 35 26.1578 35 26.0067 35C25.9347 35 26.0787 35 26.0067 35H23.0048C21.9032 30.4908 19.3919 27.987 19.3139 27.876C19.4323 27.9299 23.1867 29.7513 25.3857 33.3883C25.872 34.1936 26.2023 34.6983 26.4168 35H26.3083Z" fill="#82B3E1"/>
<path d="M4.24718 33.3912C6.44328 29.7513 10.2006 27.93 10.3189 27.8761C10.241 27.987 8.0595 30.4899 7.00505 35H4.00273C3.9562 35 4.05648 35 4.00273 35C3.7382 35 3.66408 35 3.44763 35H3.26517C3.45157 34.698 3.76307 34.1939 4.24718 33.3912Z" fill="#82B3E1"/>
<path d="M19.3111 27.8761C19.389 27.9897 21.8992 30.4926 22.9989 35H7.00447C8.05873 30.4908 10.241 27.9871 10.3189 27.8761C16.3301 28.5484 19.3111 27.8761 19.3111 27.8761Z" fill="#82B3E1"/>
<path d="M27.813 17.1482C27.9958 10.1762 22.407 4.37818 15.3299 4.19804C8.25288 4.01791 2.36757 9.52385 2.18473 16.4959C2.00188 23.468 7.59073 29.266 14.6678 29.4461C21.7448 29.6262 27.6301 24.1203 27.813 17.1482Z" fill="#82B3E1"/>
<path d="M12.49 6.43666C12.066 5.15795 11.4053 4.48913 10.8278 4.13293C10.1854 3.7383 9.64431 3.73574 9.63391 3.73574C10.9345 2.10083 12.3469 2.83372 13.096 3.44361C13.429 3.71524 13.6293 3.96124 13.6293 3.96124C13.7671 3.72036 13.905 3.49229 14.0376 3.2796C16.4333 -0.482219 18.4284 0.0226033 18.4284 0.0226033C16.8651 1.46788 16.5477 3.03872 16.4931 3.38467C16.4879 3.43079 16.4853 3.45386 16.4853 3.45386C16.5113 3.43336 16.5399 3.41542 16.5633 3.39748C19.7471 1.17575 20.3662 2.89009 20.3662 2.89009C19.5572 2.96697 17.133 3.90486 16.9353 6.4341" fill="#82B3E1"/>
<path d="M26.3956 13.2915C26.3956 13.2915 30.2687 13.7579 29.9852 16.4562C29.7016 19.1546 28.7236 20.3206 28.1982 20.4128C27.6728 20.5051 26.1121 20.4128 26.1121 20.4128" fill="#82B3E1"/>
<path d="M3.60441 13.2915C3.60441 13.2915 -0.268684 13.7553 0.0148398 16.4562C0.298364 19.1572 1.27639 20.3206 1.80182 20.4128C2.32725 20.5051 3.88793 20.4128 3.88793 20.4128" fill="#82B3E1"/>
<path d="M24.3563 17.061C24.2159 18.5883 23.7737 19.3109 23.1884 19.8106C22.715 20.2155 21.9529 20.6306 21.4795 20.8177C21.3702 20.8638 21.2766 20.892 21.2064 20.9099C20.8188 20.9996 20.4104 21.12 20.4312 21.6351C20.452 22.1169 20.6211 22.8728 20.5509 23.4699C20.5457 23.516 20.5405 23.557 20.5327 23.598C20.4208 24.213 20.1113 25.2637 19.4948 25.8813C18.8783 26.4963 18.1162 27.1036 16.67 27.5213C16.67 27.5213 16.0041 27.7084 14.9428 27.734C13.8816 27.7084 13.2131 27.5213 13.2131 27.5213C11.7694 27.1036 11.0099 26.4988 10.3908 25.8813C9.77177 25.2663 9.46223 24.2156 9.35299 23.598C9.34518 23.5545 9.33998 23.5135 9.33478 23.4673C9.26715 22.8703 9.43362 22.1118 9.44923 21.6326C9.47264 21.1175 9.06426 20.997 8.67929 20.9074C8.60906 20.8894 8.52062 20.8612 8.41658 20.8202C7.94317 20.6332 7.17323 20.2155 6.69462 19.808C6.10937 19.3083 5.66978 18.5857 5.52411 17.0584C5.38365 15.5286 5.9559 14.3088 6.07555 14.0705C6.19781 13.8322 6.6374 13.0788 7.45676 12.4945C8.27091 11.9077 9.1527 11.6847 10.3726 11.6335C11.5926 11.5848 13.0336 12.064 13.8347 12.3305C14.6307 12.6021 14.9402 12.6098 14.9402 12.6098C14.9402 12.6098 15.2498 12.6021 16.0483 12.3305C16.8469 12.064 18.2905 11.5848 19.5078 11.6335C19.6249 11.6412 21.2038 11.6335 22.4263 12.4945C23.2483 13.0736 23.6826 13.8347 23.8049 14.0705C23.9272 14.3114 24.4994 15.5286 24.3537 17.0584L24.3563 17.061Z" fill="#82B3E1"/>
<path d="M15.1639 25.3047C15.1483 25.3047 15.1327 25.3047 15.117 25.3047C12.4301 25.2868 11.4182 24.1618 11.3766 24.1131C11.1997 23.9107 11.2231 23.6083 11.4286 23.4341C11.6315 23.2624 11.9359 23.2829 12.1127 23.4802C12.1387 23.5058 12.9477 24.3258 15.1222 24.3412C16.9508 24.3591 17.6896 23.5263 17.7182 23.4904C17.8925 23.2906 18.1994 23.2624 18.4049 23.4315C18.6104 23.6006 18.6416 23.8979 18.4725 24.1029C18.4309 24.1516 17.4529 25.3047 15.1613 25.3047H15.1639Z" fill="#82B3E1"/>
<path d="M15.3901 20.7408C15.3381 20.5435 15.3043 20.3513 15.4032 20.1565C15.8427 19.2878 18.0667 20.464 15.3901 20.7408Z" fill="#82B3E1"/>
<path d="M14.7216 20.7408C14.7737 20.5435 14.8075 20.3513 14.7086 20.1565C14.269 19.2878 12.0451 20.464 14.7216 20.7408Z" fill="#82B3E1"/>
<path d="M12.8151 16.118C12.8151 15.007 11.9015 14.1063 10.7745 14.1063C9.64749 14.1063 8.73389 15.007 8.73389 16.118V17.6734C8.73389 18.7844 9.64749 19.685 10.7745 19.685C11.9015 19.685 12.8151 18.7844 12.8151 17.6734V16.118Z" fill="#82B3E1"/>
<path d="M11.9957 17.6837C11.9957 18.2961 11.4234 18.7907 10.7185 18.7907C10.0136 18.7907 9.44135 18.2935 9.44135 17.6837V16.1564C9.44135 15.5439 10.0136 15.0494 10.7185 15.0494C10.8095 15.0494 10.9006 15.057 10.9864 15.0724C10.6197 15.2108 10.3622 15.5285 10.3622 15.8976C10.3622 16.3947 10.8278 16.797 11.4 16.797C11.6211 16.797 11.8266 16.7381 11.9957 16.6356V17.6837Z" fill="#82B3E1"/>
<path d="M21.1491 16.118C21.1491 15.007 20.2355 14.1063 19.1085 14.1063C17.9815 14.1063 17.0679 15.007 17.0679 16.118V17.6734C17.0679 18.7844 17.9815 19.685 19.1085 19.685C20.2355 19.685 21.1491 18.7844 21.1491 17.6734V16.118Z" fill="#82B3E1"/>
<path d="M20.3298 17.6837C20.3298 18.2961 19.7575 18.7907 19.0526 18.7907C18.3477 18.7907 17.7755 18.2935 17.7755 17.6837V16.1564C17.7755 15.5439 18.3477 15.0494 19.0526 15.0494C19.1437 15.0494 19.2347 15.057 19.3205 15.0724C18.9538 15.2108 18.6963 15.5285 18.6963 15.8976C18.6963 16.3947 19.1619 16.797 19.7341 16.797C19.9552 16.797 20.1607 16.7381 20.3298 16.6356V17.6837Z" fill="#82B3E1"/>
<path d="M20.6704 22.3732C21.5855 22.3732 22.3274 21.6423 22.3274 20.7408C22.3274 19.8393 21.5855 19.1085 20.6704 19.1085C19.7554 19.1085 19.0135 19.8393 19.0135 20.7408C19.0135 21.6423 19.7554 22.3732 20.6704 22.3732Z" fill="#82B3E1"/>
<path d="M9.28795 22.3732C10.203 22.3732 10.9449 21.6423 10.9449 20.7408C10.9449 19.8393 10.203 19.1085 9.28795 19.1085C8.37285 19.1085 7.63102 19.8393 7.63102 20.7408C7.63102 21.6423 8.37285 22.3732 9.28795 22.3732Z" fill="#82B3E1"/>
</svg>
